<?xml version="1.0" encoding="UTF-8"?><svg xmlns="http://www.w3.org/2000/svg" xmlns:xlink="http://www.w3.org/1999/xlink" viewBox="0 0 1004.42 572.06"><defs><style>.ar{fill:url(#ac);}.ar,.as,.at,.au,.av,.aw,.ax,.ay,.b`,.ba,.bb,.bc,.bd,.be,.bf,.bg,.bh,.bi,.bj,.bk,.bl,.bm,.bn,.bo,.bp,.bq,.br,.bs,.bt{mix-blend-mode:color-dodge;}.bu{fill:url(#t);}.as{fill:url(#n);}.bv{fill:#877ea7;}.bw{fill:#fff;}.at{fill:url(#ao);}.bx{clip-path:url(#l);}.by{fill:url(#r);}.c`{fill:url(#y);}.au{fill:url(#k);}.av{fill:url(#al);}.aw{fill:url(#ae);}.ax{fill:url(#ah);}.ca{fill:url(#u);}.ay{fill:url(#g);}.b`{fill:url(#ap);}.cb{isolation:isolate;}.cc{fill:url(#v);}.ba{fill:url(#e);}.bb{fill:url(#an);}.bc{fill:url(#i);}.bd{fill:url(#ab);}.cd{fill:#5eeef6;}.be{fill:url(#h);}.bf{fill:url(#ad);}.bg{fill:url(#aq);}.bh{fill:url(#ai);}.bi{fill:url(#p);}.bj{fill:url(#d);}.bk{fill:url(#a`);}.ce{clip-path:url(#b);}.cf{fill:url(#ak);}.cg{fill:#dfe4ef;}.bl{fill:url(#o);}.ch{clip-path:url(#c);}.bm{fill:url(#aa);}.ci{fill:#060a14;}.bn{fill:url(#m);}.bo{fill:url(#aj);}.bp{fill:url(#am);}.cj{fill:none;}.ck{fill:url(#x);}.cl{fill:#0e5cdf;}.br{fill:url(#f);}.cm{fill:url(#s);}.bs{fill:url(#af);}.cn{fill:url(#w);}.co{clip-path:url(#q);}.cp{fill:#0849d4;}.cq{fill:url(#ag);}.bt{fill:url(#j);}</style><clipPath id="b"><rect class="cj" x="90.88" width="857.39" height="500"/></clipPath><clipPath id="c"><path class="cd" d="M484.2,402.4c-4,0-7.78-.9-11.19-2.72-7.99-4.24-12.95-12.9-13.97-24.39-1-11.21,1.88-23.84,8.1-35.57s15.08-21.19,24.93-26.64c10.09-5.59,20.05-6.33,28.03-2.09,7.99,4.24,12.95,12.9,13.97,24.39,1,11.21-1.88,23.85-8.11,35.57-6.23,11.73-15.08,21.19-24.93,26.64-5.77,3.2-11.5,4.81-16.84,4.81Zm24.7-90.6c-4.75,0-9.9,1.46-15.13,4.36-9.26,5.13-17.61,14.08-23.52,25.21-5.91,11.13-8.65,23.07-7.71,33.61,.92,10.26,5.22,17.93,12.12,21.59,6.9,3.66,15.66,2.93,24.68-2.06,9.26-5.13,17.61-14.08,23.52-25.21h0c5.91-11.13,8.65-23.07,7.71-33.61-.91-10.26-5.22-17.93-12.12-21.59-2.9-1.54-6.12-2.3-9.55-2.3Z"/></clipPath><radialGradient id="d" cx="420.04" cy="430.66" fx="420.04" fy="430.66" r="141.4" gradientTransform="translate(427.55 -170.87) rotate(45)" gradientUnits="userSpaceOnUse"><stop offset="0" stop-color="#2c8db9"/><stop offset=".34" stop-color="#225c7b"/><stop offset=".64" stop-color="#1b384b"/><stop offset=".87" stop-color="#16212e"/><stop offset="1" stop-color="#151924"/></radialGradient><radialGradient id="e" cx="472.88" cy="405.5" fx="472.88" fy="405.5" r="141.4" gradientTransform="translate(425.23 -215.61) rotate(45)" xlink:href="#d"/><radialGradient id="f" cx="446.88" cy="387.88" fx="446.88" fy="387.88" r="141.4" gradientTransform="matrix(1, 0, 0, 1, 0, 0)" xlink:href="#d"/><radialGradient id="g" cx="456.94" cy="398.79" fx="456.94" fy="398.79" r="141.4" gradientTransform="translate(415.82 -206.3) rotate(45)" gradientUnits="userSpaceOnUse"><stop offset="0" stop-color="#70e000"/><stop offset=".19" stop-color="#5ab108"/><stop offset=".47" stop-color="#3c7014"/><stop offset=".71" stop-color="#27411c"/><stop offset=".9" stop-color="#192322"/><stop offset="1" stop-color="#151924"/></radialGradient><radialGradient id="h" cx="1624.66" cy="-134.95" fx="1624.66" fy="-134.95" r="101.71" gradientTransform="translate(-3389.66 455.19) scale(2.48 .88)" gradientUnits="userSpaceOnUse"><stop offset="0" stop-color="#2c8db9"/><stop offset=".14" stop-color="#247398"/><stop offset=".44" stop-color="#144257"/><stop offset=".7" stop-color="#091e28"/><stop offset=".89" stop-color="#02080a"/><stop offset="1" stop-color="#000"/></radialGradient><radialGradient id="i" cx="1606.09" cy="-360.06" fx="1606.09" fy="-360.06" r="101.71" gradientTransform="translate(-3430.23 469.36) scale(2.48 .88)" xlink:href="#h"/><radialGradient id="j" cx="473.21" cy="346.7" fx="473.21" fy="346.7" r="101.71" gradientTransform="matrix(1, 0, 0, 1, 0, 0)" xlink:href="#h"/><radialGradient id="k" cx="-890.98" cy="1202.37" fx="-890.98" fy="1202.37" r="101.72" gradientTransform="translate(1658.17 947.66) rotate(90) scale(.64 1)" xlink:href="#h"/><clipPath id="l"><path class="cj" d="M715.37,274.76c-1.93-.26-3.66-1.2-5.12-2.81-3.42-3.78-4.92-10.77-4.23-19.68,.67-8.7,3.36-18.23,7.58-26.86s9.46-15.34,14.78-18.9c5.44-3.65,10.33-3.57,13.74,.2,3.42,3.78,4.92,10.77,4.23,19.68-.67,8.7-3.37,18.23-7.58,26.86-4.21,8.63-9.46,15.34-14.78,18.9-3.12,2.09-6.04,2.96-8.62,2.61Zm21.26-68.14c-2.29-.31-4.93,.49-7.75,2.38-5,3.35-9.95,9.7-13.95,17.89-4,8.19-6.55,17.2-7.19,25.37-.62,7.96,.67,14.14,3.62,17.41,2.95,3.27,7.26,3.27,12.12,.01,5-3.35,9.95-9.7,13.95-17.89h0c4-8.19,6.55-17.2,7.19-25.37,.62-7.96-.67-14.14-3.62-17.41-1.24-1.37-2.71-2.16-4.37-2.39Z"/></clipPath><radialGradient id="m" cx="-1193.54" cy="355.26" fx="-1193.54" fy="355.26" r="141.4" gradientTransform="translate(957.35 873.39) rotate(90.01) scale(.49 .78) skewX(.01)" xlink:href="#d"/><radialGradient id="n" cx="-1140.69" cy="330.1" fx="-1140.69" fy="330.1" r="141.4" gradientTransform="translate(965.9 831.71) rotate(90.01) scale(.49 .78) skewX(.01)" xlink:href="#d"/><radialGradient id="o" cx="-1166.7" cy="312.49" fx="-1166.7" fy="312.49" r="141.4" gradientTransform="translate(941.49 829.13) rotate(90.01) scale(.49 .78) skewX(.01)" xlink:href="#d"/><radialGradient id="p" cx="-1156.63" cy="323.39" fx="-1156.63" fy="323.39" r="141.4" gradientTransform="translate(953.69 833.28) rotate(90.01) scale(.49 .78) skewX(.01)" xlink:href="#g"/><clipPath id="q"><path class="cj" d="M384.02,310.42c16.23-7.33,23.56-19.37,23.56-19.37,0,0,62.83-8.38,80.64-16.76,17.8-8.38,10.47-10.47,64.4-26.18,53.93-15.71,115.2-46.6,131.43-51.31,16.23-4.71,30.05-17.88,19.18,16.14,0,0,14.4-24.08,25.54-24.89,11.14-.81,6.89-7.29,6.89-10.73s-13.88-4.82-33.72-.46c-19.84,4.36-79.14,27.7-113.53,37.84-34.39,10.14-66.13,10.58-104.48,18.96-38.35,8.38-63.92,16.31-42.76,0,21.16-16.31,42.32-33.94,65.68-47.17,23.36-13.23-15.43,4.85-45.41,22.48-29.98,17.63-80.23,52.46-95.66,52.46s-59.51-4.85-53.34,.44c6.17,5.29,11.9,18.52,50.7,19.84,38.79,1.32,42.32,.88,38.79,8.82-3.53,7.94-17.92,19.89-17.92,19.89Z"/></clipPath><radialGradient id="r" cx="1772.05" cy="-115.75" fx="1772.05" fy="-115.75" r="141.4" gradientTransform="translate(-4642.39 434.72) scale(2.96 1)" gradientUnits="userSpaceOnUse"><stop offset="0" stop-color="#bdc6c5"/><stop offset=".15" stop-color="#9aa2a3"/><stop offset=".45" stop-color="#5b6166"/><stop offset=".7" stop-color="#2c3239"/><stop offset=".89" stop-color="#10141e"/><stop offset="1" stop-color="#060a14"/></radialGradient><radialGradient id="s" cx="563.54" cy="232.23" fx="563.54" fy="232.23" r="40.79" gradientTransform="matrix(1, 0, 0, 1, 0, 0)" xlink:href="#d"/><radialGradient id="t" cx="626.22" cy="220.82" fx="626.22" fy="220.82" r="43.36" gradientTransform="matrix(1, 0, 0, 1, 0, 0)" gradientUnits="userSpaceOnUse"><stop offset="0" stop-color="#ff8dff"/><stop offset=".06" stop-color="#eb82eb"/><stop offset=".33" stop-color="#995499"/><stop offset=".56" stop-color="#573057"/><stop offset=".76" stop-color="#281628"/><stop offset=".91" stop-color="#0a060a"/><stop offset="1" stop-color="#000"/></radialGradient><radialGradient id="u" cx="585.27" cy="245.98" fx="585.27" fy="245.98" r="53.75" gradientTransform="matrix(1, 0, 0, 1, 0, 0)" xlink:href="#h"/><radialGradient id="v" cx="571.19" cy="180.06" fx="571.19" fy="180.06" r="70.39" gradientTransform="matrix(1, 0, 0, 1, 0, 0)" gradientUnits="userSpaceOnUse"><stop offset="0" stop-color="#2c8db9"/><stop offset=".13" stop-color="#2a89b4"/><stop offset=".29" stop-color="#277da5"/><stop offset=".46" stop-color="#226a8d"/><stop offset=".64" stop-color="#1a506c"/><stop offset=".83" stop-color="#102e42"/><stop offset="1" stop-color="#060a14"/></radialGradient><radialGradient id="w" cx="463.5" cy="198.75" fx="463.5" fy="198.75" r="67.87" gradientTransform="matrix(1, 0, 0, 1, 0, 0)" gradientUnits="userSpaceOnUse"><stop offset="0" stop-color="#2c8db9"/><stop offset=".06" stop-color="#2982ac"/><stop offset=".39" stop-color="#1a4f6b"/><stop offset=".67" stop-color="#0f293b"/><stop offset=".88" stop-color="#08121e"/><stop offset="1" stop-color="#060a14"/></radialGradient><linearGradient id="x" x1="259.03" y1="338.16" x2="391.22" y2="338.16" gradientTransform="matrix(1, 0, 0, 1, 0, 0)" gradientUnits="userSpaceOnUse"><stop offset="0" stop-color="#2c8db9"/><stop offset=".36" stop-color="#1992d7"/><stop offset=".77" stop-color="#0697f4"/><stop offset="1" stop-color="#009aff"/></linearGradient><radialGradient id="y" cx="611.95" cy="299.96" fx="611.95" fy="299.96" r="53.37" gradientTransform="matrix(1, 0, 0, 1, 0, 0)" xlink:href="#h"/><radialGradient id="a`" cx="1766.99" cy="-3609.98" fx="1766.99" fy="-3609.98" r="101.72" gradientTransform="translate(-4441.48 1400.41) scale(2.81 .31)" xlink:href="#h"/><radialGradient id="aa" cx="-225.61" cy="232.01" fx="-225.61" fy="232.01" r="101.71" gradientTransform="translate(830.14) scale(.63 1)" xlink:href="#h"/><radialGradient id="ab" cx="-648.92" cy="838.94" fx="-648.92" fy="838.94" r="63.96" gradientTransform="translate(1535.87 616.53) rotate(90) scale(.63 1)" xlink:href="#h"/><radialGradient id="ac" cx="1648.05" cy="-4573.61" fx="1648.05" fy="-4573.61" r="101.71" gradientTransform="translate(-4071.99 1277.71) scale(2.76 .23)" xlink:href="#h"/><radialGradient id="ad" cx="1643.36" cy="-5009.49" fx="1643.36" fy="-5009.49" r="101.72" gradientTransform="translate(-4173.85 1415.05) scale(2.76 .23)" xlink:href="#h"/><radialGradient id="ae" cx="1642.49" cy="-5012.29" fx="1642.49" fy="-5012.29" r="101.72" gradientTransform="translate(-4173.93 1415.69) scale(2.76 .23)" xlink:href="#h"/><radialGradient id="af" cx="35.4" cy="1762.8" fx="35.4" fy="1762.8" r="101.72" gradientTransform="translate(954.29 226.87) rotate(90) scale(1 .38)" xlink:href="#h"/><radialGradient id="ag" cx="256.77" cy="221.63" fx="256.77" fy="221.63" r="192.49" xlink:href="#w"/><radialGradient id="ah" cx="860.09" cy="-6255.2" fx="860.09" fy="-6255.2" r="101.7" gradientTransform="translate(-365.35 1431.35) scale(1 .2)" xlink:href="#h"/><radialGradient id="ai" cx="1416.54" cy="-7385.72" fx="1416.54" fy="-7385.72" r="101.7" gradientTransform="translate(-1534.54 1698.35) scale(1.39 .2)" xlink:href="#h"/><radialGradient id="aj" cx="1205" cy="-5767.74" fx="1205" fy="-5767.74" r="101.72" gradientTransform="translate(-633.87 1654.19) scale(1 .23)" xlink:href="#h"/><radialGradient id="ak" cx="319.56" cy="257.47" fx="319.56" fy="257.47" r="209.66" gradientTransform="matrix(1, 0, 0, 1, 0, 0)" gradientUnits="userSpaceOnUse"><stop offset="0" stop-color="#e963fb"/><stop offset=".27" stop-color="#9c44ad"/><stop offset=".53" stop-color="#5b2b6b"/><stop offset=".74" stop-color="#2d193c"/><stop offset=".91" stop-color="#100e1e"/><stop offset="1" stop-color="#060a14"/></radialGradient><radialGradient id="al" cx="1554.43" cy="-11997.98" fx="1554.43" fy="-11997.98" r="101.72" gradientTransform="translate(-2730.75 1810.76) scale(1.95 .13)" xlink:href="#h"/><radialGradient id="am" cx="76.77" cy="1277.18" fx="76.77" fy="1277.18" r="101.72" gradientTransform="translate(943.35 261.33) rotate(90) scale(1 .49)" xlink:href="#h"/><radialGradient id="an" cx="135.63" cy="1276.53" fx="135.63" fy="1276.53" r="101.72" gradientTransform="translate(995.18 229.78) rotate(90) scale(1 .49)" xlink:href="#h"/><radialGradient id="ao" cx="103.62" cy="1294.15" fx="103.62" fy="1294.15" r="101.72" gradientTransform="translate(971.45 254.33) rotate(90) scale(1 .49)" xlink:href="#h"/><radialGradient id="ap" cx="863.15" cy="1294.23" fx="863.15" fy="1294.23" r="101.72" gradientTransform="translate(924.31 -1090.3) rotate(90) scale(1.65 .49)" gradientUnits="userSpaceOnUse"><stop offset="0" stop-color="#ff8db9"/><stop offset=".06" stop-color="#eb82ab"/><stop offset=".33" stop-color="#99546f"/><stop offset=".56" stop-color="#57303f"/><stop offset=".76" stop-color="#28161d"/><stop offset=".91" stop-color="#0a0607"/><stop offset="1" stop-color="#000"/></radialGradient><radialGradient id="aq" cx="1600.36" cy="-283.66" fx="1600.36" fy="-283.66" r="101.71" gradientTransform="translate(-3415.79 470.85) scale(2.48 .88)" xlink:href="#h"/></defs><g class="cb"><g id="a"><g class="ce"><rect class="ci" x="90.88" width="857.39" height="500"/><path class="cg" d="M484.2,402.4c-4,0-7.78-.9-11.19-2.72-7.99-4.24-12.95-12.9-13.97-24.39-1-11.21,1.88-23.84,8.1-35.57s15.08-21.19,24.93-26.64c10.09-5.59,20.05-6.33,28.03-2.09,7.99,4.24,12.95,12.9,13.97,24.39,1,11.21-1.88,23.85-8.11,35.57-6.23,11.73-15.08,21.19-24.93,26.64-5.77,3.2-11.5,4.81-16.84,4.81Zm24.7-90.6c-4.75,0-9.9,1.46-15.13,4.36-9.26,5.13-17.61,14.08-23.52,25.21-5.91,11.13-8.65,23.07-7.71,33.61,.92,10.26,5.22,17.93,12.12,21.59,6.9,3.66,15.66,2.93,24.68-2.06,9.26-5.13,17.61-14.08,23.52-25.21h0c5.91-11.13,8.65-23.07,7.71-33.61-.91-10.26-5.22-17.93-12.12-21.59-2.9-1.54-6.12-2.3-9.55-2.3Z"/><g><path class="cd" d="M484.2,402.4c-4,0-7.78-.9-11.19-2.72-7.99-4.24-12.95-12.9-13.97-24.39-1-11.21,1.88-23.84,8.1-35.57s15.08-21.19,24.93-26.64c10.09-5.59,20.05-6.33,28.03-2.09,7.99,4.24,12.95,12.9,13.97,24.39,1,11.21-1.88,23.85-8.11,35.57-6.23,11.73-15.08,21.19-24.93,26.64-5.77,3.2-11.5,4.81-16.84,4.81Zm24.7-90.6c-4.75,0-9.9,1.46-15.13,4.36-9.26,5.13-17.61,14.08-23.52,25.21-5.91,11.13-8.65,23.07-7.71,33.61,.92,10.26,5.22,17.93,12.12,21.59,6.9,3.66,15.66,2.93,24.68-2.06,9.26-5.13,17.61-14.08,23.52-25.21h0c5.91-11.13,8.65-23.07,7.71-33.61-.91-10.26-5.22-17.93-12.12-21.59-2.9-1.54-6.12-2.3-9.55-2.3Z"/><g class="ch"><circle class="bj" cx="420.04" cy="430.66" r="141.4" transform="translate(-181.5 423.15) rotate(-45)"/><circle class="ba" cx="472.88" cy="405.5" r="141.4" transform="translate(-148.23 453.14) rotate(-45)"/><circle class="br" cx="446.88" cy="387.88" r="141.4"/><circle class="ay" cx="456.94" cy="398.79" r="141.4" transform="translate(-148.15 439.91) rotate(-45)"/></g></g><ellipse class="be" cx="643.67" cy="336.95" rx="252.51" ry="89.11" transform="translate(-56.6 143.36) rotate(-12.18)"/><ellipse class="bc" cx="556.99" cy="153.9" rx="252.51" ry="89.11" transform="translate(-19.93 120.96) rotate(-12.18)"/><circle class="bt" cx="473.21" cy="346.7" r="101.71"/><ellipse class="au" cx="455.83" cy="376.5" rx="101.71" ry="65.21" transform="translate(-78.75 628.99) rotate(-64.84)"/><path class="cg" d="M715.08,274.6c-1.93-.26-3.66-1.2-5.12-2.81-3.42-3.78-4.92-10.77-4.23-19.68,.67-8.7,3.36-18.23,7.58-26.86,4.21-8.63,9.46-15.34,14.78-18.9,5.44-3.65,10.33-3.57,13.74,.2,3.42,3.78,4.92,10.77,4.23,19.68-.67,8.7-3.37,18.23-7.58,26.86-4.21,8.63-9.46,15.34-14.78,18.9-3.12,2.09-6.04,2.96-8.62,2.61Zm21.26-68.14c-2.29-.31-4.93,.49-7.75,2.38-5,3.35-9.95,9.7-13.95,17.89-4,8.19-6.55,17.2-7.19,25.37-.62,7.96,.67,14.14,3.62,17.41,2.95,3.27,7.26,3.27,12.12,.01,5-3.35,9.95-9.7,13.95-17.89h0c4-8.19,6.55-17.2,7.19-25.37,.62-7.96-.67-14.14-3.62-17.41-1.24-1.37-2.71-2.16-4.37-2.39Z"/><path class="cd" d="M715.08,274.6c-1.93-.26-3.66-1.2-5.12-2.81-3.42-3.78-4.92-10.77-4.23-19.68,.67-8.7,3.36-18.23,7.58-26.86,4.21-8.63,9.46-15.34,14.78-18.9,5.44-3.65,10.33-3.57,13.74,.2,3.42,3.78,4.92,10.77,4.23,19.68-.67,8.7-3.37,18.23-7.58,26.86-4.21,8.63-9.46,15.34-14.78,18.9-3.12,2.09-6.04,2.96-8.62,2.61Zm20.16-67.37c-2.29-.31-4.93,.49-7.75,2.38-5,3.35-8.84,8.93-12.85,17.11-4,8.19-6.55,17.2-7.19,25.37-.62,7.96,1.08,13.06,4.03,16.32,2.95,3.27,7.26,3.27,12.12,.01,5-3.35,8.62-9.1,12.62-17.28h0c4-8.19,6.37-15.94,7-24.12,.62-7.96-.67-14.14-3.62-17.41-1.24-1.37-2.71-2.16-4.37-2.39Z"/><g class="bx"><ellipse class="bn" cx="681.49" cy="292.37" rx="109.82" ry="68.84" transform="translate(301.21 929) rotate(-82.37)"/><ellipse class="as" cx="709.58" cy="276.42" rx="109.82" ry="68.84" transform="translate(341.39 943.01) rotate(-82.37)"/><ellipse class="bl" cx="698.85" cy="261.18" rx="109.82" ry="68.84" transform="translate(347.19 919.16) rotate(-82.37)"/><ellipse class="bi" cx="702.58" cy="270.22" rx="109.82" ry="68.84" transform="translate(341.46 930.7) rotate(-82.37)"/></g><g class="co"><ellipse class="by" cx="601.84" cy="318.94" rx="418.46" ry="141.4" transform="translate(-66.65 188.35) rotate(-16.87)"/></g><g class="bq"><path class="cm" d="M617.6,212.1c-4.51,1.7-9.07,3.24-13.59,4.89l-13.62,4.75c-9.06,3.21-18.1,6.41-26.96,10.12-8.95,3.48-17.7,7.42-26.61,11.12-8.95,3.52-17.84,7.47-27.33,9.37,4.63-1.28,9.01-3.31,13.41-5.22,4.41-1.9,8.79-3.88,13.15-5.9,8.72-4.04,17.52-7.99,26.44-11.67,8.98-3.53,18.08-6.79,27.29-9.62,9.21-2.82,18.47-5.46,27.81-7.83Z"/></g><path class="bu" d="M682.89,197.4c-9.25,4.37-18.56,8.6-27.86,12.83-9.3,4.24-18.68,8.31-28.02,12.46-9.42,3.97-18.82,8.01-28.37,11.7-9.55,3.67-19.2,7.18-29.09,9.83,4.77-1.86,9.55-3.64,14.25-5.66,4.74-1.91,9.43-3.91,14.12-5.94,9.38-4.04,18.77-8.06,28.11-12.21,9.42-3.96,18.78-8.07,28.25-11.93,9.47-3.87,18.97-7.66,28.62-11.09Z"/><path class="ca" d="M654.44,214.47c-11.79,5.6-23.75,10.8-35.78,15.85-12.03,5.05-24.18,9.79-36.36,14.47-12.26,4.46-24.53,8.94-37.08,12.63-6.26,1.98-12.8,2.9-18.6,5.62-2.9,1.31-5.71,3.02-7.74,5.49-2.05,2.4-3.14,5.78-2.3,8.96-1.11-3.11-.25-6.74,1.78-9.37,1.98-2.71,4.8-4.65,7.72-6.18,2.94-1.56,6.1-2.55,9.26-3.51,3.13-.91,6.23-1.82,9.31-2.85,12.35-4.05,24.6-8.49,36.77-13.13,12.23-4.47,24.36-9.24,36.52-13.91l36.49-14.08Z"/><path class="cc" d="M475.12,206.11c14.22-10.27,29.27-19.41,44.91-27.42,7.8-4.06,15.84-7.64,24-10.92,8.14-3.35,16.51-6.14,24.98-8.58,8.5-2.35,17.19-4.12,26.02-4.87,2.21-.2,4.43-.21,6.65-.32,2.22,.07,4.46,.09,6.67,.31,4.43,.51,8.83,1.35,13.03,2.75,8.47,2.61,16.49,6.4,24.13,10.75,7.6,4.43,14.94,9.29,21.74,14.83-7.13-5.09-14.58-9.73-22.33-13.77-7.7-4.11-15.73-7.65-24.08-9.99l-3.13-.86-3.18-.64c-2.1-.52-4.25-.66-6.38-.95-2.14-.19-4.3-.19-6.45-.24-2.16,.13-4.32,.16-6.48,.37-8.63,.8-17.18,2.63-25.56,5-16.81,4.6-33.07,11.21-48.79,18.82-3.94,1.89-7.86,3.82-11.72,5.9-3.9,1.98-7.69,4.16-11.51,6.3-3.86,2.07-7.56,4.4-11.36,6.6l-11.17,6.93Z"/><path class="cn" d="M549.35,155.83l-11.14,4.5c-3.7,1.52-7.33,3.21-11,4.8-3.69,1.54-7.27,3.34-10.9,5-3.64,1.66-7.22,3.44-10.79,5.24-14.32,7.11-28.48,14.57-42.44,22.39l-42,23.32c-14.09,7.58-28.22,15.39-43.41,20.61,7.42-3.03,14.54-6.68,21.57-10.5,7.03-3.82,13.99-7.76,20.91-11.78,13.86-8.01,27.75-15.99,41.74-23.82,14.09-7.65,28.27-15.16,42.82-21.93,14.54-6.76,29.37-12.97,44.66-17.82Z"/><path class="bv" d="M257.57,232.92c8.92,9.32,18.17,18.06,28.9,24.5,10.64,6.53,22.23,11.34,34.31,14.73,3.01,.89,6.07,1.61,9.11,2.43,3.04,.81,6.17,1.28,9.25,2,3.07,.75,6.21,1.2,9.33,1.77,3.12,.54,6.24,1.12,9.4,1.55,12.57,2.04,25.29,3.24,38.07,5.11-12.84,1.05-25.78,1.38-38.68,.34-1.61-.11-3.23-.17-4.85-.33l-4.83-.57c-3.22-.41-6.45-.7-9.65-1.31-3.2-.59-6.41-1.1-9.59-1.86-3.17-.8-6.36-1.48-9.51-2.37-3.11-1.04-6.26-1.96-9.33-3.1l-4.58-1.82c-1.53-.61-3.07-1.18-4.52-1.97-2.94-1.51-5.94-2.85-8.73-4.63l-4.24-2.54-4.01-2.9c-10.74-7.7-19.26-17.99-25.83-29.03Z"/><path class="ck" d="M391.22,384.25c-11.23-8.03-21.61-17.28-33.51-23.25-5.98-2.97-12.22-5.6-18.59-8.03-6.35-2.5-12.75-4.97-19.17-7.41-3.19-1.26-6.37-2.51-9.61-3.95l-4.83-2.08-4.71-2.38c-6.22-3.26-12.26-6.96-17.77-11.38-5.56-4.33-10.65-9.31-14.9-14.94-4.11-5.67-7.76-11.91-9.11-18.75,2.83,6.3,7.09,11.67,11.74,16.5,4.65,4.86,9.96,9.02,15.51,12.75,1.36,.97,2.78,1.86,4.24,2.69,1.44,.85,2.83,1.79,4.3,2.59,2.98,1.55,5.86,3.25,8.96,4.57l4.55,2.16,4.67,1.92c3.07,1.31,6.3,2.51,9.52,3.74,12.73,5.16,25.71,9.93,37.89,17.22,6.1,3.62,11.53,8.23,16.53,13.01,4.97,4.85,9.72,9.83,14.29,15.01Z"/><path class="bw" d="M262.79,277.19c-.06-1.94-.17-3.88,0-5.85,.12-.96,.24-2.02,1-2.85,.38-.41,.96-.62,1.49-.64,.54-.03,1.06,.05,1.54,.19,1.95,.57,3.64,1.59,5.32,2.58,1.68,1.01,3.3,2.1,4.91,3.18,6.46,4.32,12.81,8.78,19.68,12.33,3.4,1.83,6.89,3.5,10.44,5.05,3.51,1.52,7.27,2.97,10.46,5.32,3.22,2.28,6.04,5.1,8.35,8.27,2.22,3.22,4.1,6.72,5.12,10.48-1.32-3.66-3.3-7.03-5.67-10.06-2.38-3.02-5.21-5.68-8.41-7.78-.4-.26-.79-.54-1.2-.78l-1.26-.69-1.25-.7-1.3-.59c-1.71-.82-3.57-1.49-5.35-2.27-3.59-1.52-7.14-3.16-10.6-4.98-6.9-3.7-13.31-8.18-19.63-12.69-1.58-1.13-3.15-2.26-4.77-3.31-1.62-1.03-3.27-2.08-5.04-2.67-.86-.28-1.85-.42-2.47,.17-.62,.59-.84,1.59-1,2.52-.27,1.9-.29,3.86-.38,5.8Z"/><path class="c`" d="M544.92,334.63c10.73-6.58,21.7-12.77,32.72-18.85,11.02-6.07,22.2-11.86,33.34-17.71,11.24-5.66,22.46-11.36,33.79-16.84,11.33-5.47,22.7-10.87,34.22-15.95l-16.64,8.91-16.72,8.75-33.51,17.34-67.19,34.35Z"/><path class="cp" d="M689.82,179.22c-25.19,8.28-50.78,15.31-76.49,21.79-25.74,6.38-51.61,12.17-77.43,18.16-51.62,11.91-103.16,24.74-152.83,43.15-49.74,18.01-97.5,41.84-140.85,72.27-21.7,15.15-42.33,31.86-61.67,49.95-19.46,17.96-37.76,37.18-55.05,57.27,16.99-20.35,35-39.86,54.22-58.16,19.26-18.25,39.87-35.09,61.55-50.41,43.32-30.75,91.12-54.94,140.94-73.25,49.93-18.21,101.61-30.78,153.31-42.42,25.86-5.84,51.75-11.54,77.51-17.73,25.79-6.09,51.46-12.72,76.77-20.61Z"/><ellipse class="bk" cx="527.75" cy="265.06" rx="286.05" ry="31.99" transform="translate(-58.87 196.8) rotate(-20.03)"/><path class="cl" d="M676.53,201.06c3.76-1.37,7.51-2.72,11.18-4.27l5.56-2.23c.94-.36,1.88-.73,2.88-1.03,1.02-.23,2.03-.71,3.55-.2,.78,.3,1.3,1.09,1.47,1.69,.2,.62,.28,1.2,.3,1.74,.06,1.09-.02,2.12-.1,3.14-.18,2.02-.47,4.05-.86,6.04-.8,4-2.06,7.88-3.58,11.64-1.55,3.75-3.38,7.35-5.34,10.87-2.06,3.44-3.92,7.02-6.68,10.15-5.48,6.13-12.56,10.42-20.04,13.22,3.54-1.85,6.94-3.94,10.07-6.36,3.14-2.38,6.12-5.01,8.5-8.09,2.33-3.04,4.19-6.59,6.09-10.07,1.87-3.49,3.64-7.02,5.1-10.67,1.52-3.63,2.74-7.36,3.58-11.18,.44-1.91,.76-3.83,1-5.78,.11-.97,.2-1.94,.19-2.84,.01-.91-.19-1.71-.47-1.77-.39-.23-1.45-.08-2.33,.14-.92,.22-1.87,.53-2.81,.83l-5.68,1.9c-3.83,1.18-7.68,2.31-11.59,3.14Z"/><ellipse class="bm" cx="686.97" cy="232.01" rx="64.55" ry="101.71"/><ellipse class="bd" cx="696.9" cy="204.7" rx="63.97" ry="40.59" transform="translate(256.18 782.06) rotate(-69.01)"/><ellipse class="ar" cx="478.23" cy="229.43" rx="280.84" ry="23.31" transform="translate(-33.99 91.7) rotate(-10.58)"/><ellipse class="bf" cx="363.74" cy="266.97" rx="280.84" ry="23.31" transform="translate(-56.65 103.1) rotate(-14.98)"/><ellipse class="aw" cx="361.26" cy="266.97" rx="280.84" ry="23.31" transform="translate(-56.73 102.45) rotate(-14.98)"/><ellipse class="bs" cx="293" cy="262.31" rx="38.16" ry="101.71" transform="translate(-88.72 356.89) rotate(-55.75)"/><path class="cq" d="M4.17,312.03c-1.39,0-2.77,0-4.17-.02l.03-3.23c1.38,.01,2.75,.02,4.12,.02,115.53,0,203.64-48.24,288.88-94.9,72.15-39.5,140.3-76.81,220.27-82.67l.23,3.22c-79.27,5.8-147.12,42.95-218.96,82.27-85.59,46.86-174.07,95.3-290.42,95.3Z"/><ellipse class="ax" cx="494.59" cy="171.48" rx="101.71" ry="20.48" transform="translate(-28.16 143.92) rotate(-16.1)"/><ellipse class="bh" cx="433.99" cy="210.65" rx="141.35" ry="20.48" transform="translate(-48.14 227.15) rotate(-27.85)"/><ellipse class="bo" cx="570.79" cy="321.36" rx="101.71" ry="23.5" transform="translate(-83.75 295.88) rotate(-27.15)"/><path class="cf" d="M592.31,143.27c-24.81-3.73-49.97,.13-73.91,6.66-24.03,6.6-47.23,15.93-69.86,26.33-45.27,20.93-88.61,45.82-131.67,71.06l-64.71,37.76c-21.64,12.48-43.33,24.92-65.5,36.48-22.15,11.59-44.63,22.62-67.81,32.04-23.19,9.24-47.18,17.19-72.04,20.15,24.73-3.75,48.47-11.99,71.38-21.75,22.97-9.71,45.25-20.98,67.19-32.83,43.89-23.75,86.63-49.59,129.71-74.88,21.59-12.56,43.28-24.98,65.25-36.92,21.98-11.91,44.2-23.42,67.08-33.57,22.86-10.15,46.28-19.24,70.53-25.54,12.14-3.07,24.49-5.35,36.97-6.45,12.46-1.17,25.09-.74,37.38,1.44Z"/><ellipse class="av" cx="306.59" cy="249.85" rx="198.73" ry="13.23" transform="translate(-78.72 160.63) rotate(-26.14)"/><ellipse class="bp" cx="323.79" cy="338.07" rx="49.34" ry="101.71" transform="translate(-126.61 465.62) rotate(-62.05)"/><ellipse class="bb" cx="375.93" cy="365.39" rx="49.34" ry="101.71" transform="translate(-123.04 526.19) rotate(-62.05)"/><ellipse class="at" cx="343.66" cy="357.94" rx="49.34" ry="101.71" transform="translate(-133.61 493.72) rotate(-62.05)"/><ellipse class="b`" cx="296.48" cy="333.11" rx="49.34" ry="167.74" transform="translate(-136.74 438.86) rotate(-62.05)"/><ellipse class="bg" cx="557.22" cy="222.32" rx="252.51" ry="89.11" transform="translate(-34.36 122.55) rotate(-12.18)"/></g></g></g></svg>