<svg xmlns="http://www.w3.org/2000/svg" xmlns:xlink="http://www.w3.org/1999/xlink" viewBox="0 0 606.65 317.34"><defs><style>.cls-1{isolation:isolate;}.cls-2{fill:#000200;}.cls-3{opacity:0.5;fill:url(#linear-gradient);}.cls-4,.cls-9{opacity:0.9;}.cls-10,.cls-4,.cls-5,.cls-8,.cls-9{mix-blend-mode:lighten;}.cls-4{fill:url(#linear-gradient-2);}.cls-10,.cls-5,.cls-8{opacity:0.7;}.cls-5{fill:url(#linear-gradient-3);}.cls-6{fill:none;stroke:#fff;stroke-miterlimit:10;opacity:0;}.cls-7{fill:#fff;}.cls-8{fill:url(#linear-gradient-4);}.cls-9{fill:url(#linear-gradient-5);}.cls-10{fill:url(#linear-gradient-6);}</style><linearGradient id="linear-gradient" x1="793.22" y1="515.88" x2="793.22" y2="433.64" gradientUnits="userSpaceOnUse"><stop offset="0.37"/><stop offset="1" stop-color="#cfcfcf"/></linearGradient><linearGradient id="linear-gradient-2" x1="683.95" y1="608.17" x2="683.95" y2="424.88" gradientUnits="userSpaceOnUse"><stop offset="0.37"/><stop offset="1" stop-color="#fff"/></linearGradient><linearGradient id="linear-gradient-3" x1="536.3" y1="518.94" x2="536.3" y2="481.53" gradientUnits="userSpaceOnUse"><stop offset="0.69"/><stop offset="1" stop-color="#fff"/></linearGradient><linearGradient id="linear-gradient-4" x1="793.22" y1="608.17" x2="793.22" y2="424.88" gradientUnits="userSpaceOnUse"><stop offset="0"/><stop offset="0.07" stop-color="#040404"/><stop offset="0.13" stop-color="#0f0f0f"/><stop offset="0.2" stop-color="#232323"/><stop offset="0.26" stop-color="#3e3e3e"/><stop offset="0.32" stop-color="#616161"/><stop offset="0.38" stop-color="#8c8c8c"/><stop offset="0.45" stop-color="#bebebe"/><stop offset="0.46" stop-color="#cfcfcf"/><stop offset="0.63"/></linearGradient><linearGradient id="linear-gradient-5" x1="-277.74" y1="608.17" x2="-277.74" y2="424.88" gradientTransform="matrix(-1, 0, 0, 1, 624.75, 0)" xlink:href="#linear-gradient-2"/><linearGradient id="linear-gradient-6" x1="-425.39" y1="518.94" x2="-425.39" y2="481.53" gradientTransform="matrix(-1, 0, 0, 1, 624.75, 0)" xlink:href="#linear-gradient-3"/></defs><g class="cls-1"><g id="Layer_1" data-name="Layer 1"><path d="M627.16,726.33c0,8.78-8.39,15.89-18.73,15.89H512.7c-10.34,0-18.73-7.11-18.73-15.89V608c0-8.78,8.39-15.89,18.73-15.89h95.73c10.34,0,18.73,7.11,18.73,15.89Z" transform="translate(-489.89 -424.88)"/><path d="M959.28,726.33c0,8.78,8.38,15.89,18.73,15.89h95.73c10.34,0,18.73-7.11,18.73-15.89V608c0-8.78-8.39-15.89-18.73-15.89H978c-10.35,0-18.73,7.11-18.73,15.89Z" transform="translate(-489.89 -424.88)"/><path class="cls-2" d="M1092.47,576c0-21.79-17.84-35.11-40.67-43.58S1019,514.84,1019,514.84c-2.41-6.61-7.21-14.91-13.29-23.64,1.79,2.67,12.88,20.32-.24,29.14-14.22,9.57-61.59,52.42-76,87.83,0,0-61.63-5.55-136.21-6.12-74.58.57-136.21,6.12-136.21,6.12-14.42-35.41-61.79-78.26-76-87.83-13.12-8.82-2-26.47-.24-29.14-6.09,8.73-10.88,17-13.3,23.64,0,0-10,9.08-32.82,17.56S494,554.19,494,576s3.57,46,3.57,46,12.84,52.06,12.84,60.54-6.68,17.5-3.63,23.41,17.39,22.13,17.39,22.13,59.74,8.4,269.08,8.4,269.08-8.4,269.08-8.4,14.35-16.23,17.39-22.13-3.63-14.94-3.63-23.41S1088.9,622,1088.9,622,1092.47,597.78,1092.47,576Z" transform="translate(-489.89 -424.88)"/><path class="cls-2" d="M985,474c-8.64-12.13-16.67-25.3-26.31-27.86-38.84-9.29-165.49-12.54-165.49-12.54s-126.66,3.25-165.5,12.54c-9.63,2.56-17.66,15.73-26.3,27.86S578.17,505.39,585,511.21s16.6,4.55,43.69,4.55,81.81-4.45,164.5-4.45,137.42,4.45,164.5,4.45,36.84,1.27,43.69-4.55S993.66,486.18,985,474Z" transform="translate(-489.89 -424.88)"/><path class="cls-3" d="M985,474c-8.64-12.13-16.67-25.3-26.31-27.86-38.84-9.29-165.49-12.54-165.49-12.54s-126.66,3.25-165.5,12.54c-9.63,2.56-17.66,15.73-26.3,27.86S578.17,505.39,585,511.21s16.6,4.55,43.69,4.55,81.81-4.45,164.5-4.45,137.42,4.45,164.5,4.45,36.84,1.27,43.69-4.55S993.66,486.18,985,474Z" transform="translate(-489.89 -424.88)"/><path class="cls-2" d="M585,511.21c-6.86-5.82,7.75-25,16.39-37.17s16.67-25.3,26.3-27.86c38.84-9.29,165.5-12.54,165.5-12.54v-8.76c-41.15,0-135.05,5.41-153.59,9.83-13.73,3.28-41.56,31.65-58.87,56.49-1.79,2.67-12.88,20.32.24,29.14,14.22,9.57,61.59,52.42,76,87.83,0,0,61.63-5.55,136.21-6.12V511.31c-82.69,0-137.42,4.45-164.5,4.45S591.88,517,585,511.21Z" transform="translate(-489.89 -424.88)"/><path class="cls-4" d="M585,511.21c-6.86-5.82,7.75-25,16.39-37.17s16.67-25.3,26.3-27.86c38.84-9.29,165.5-12.54,165.5-12.54v-8.76c-41.15,0-135.05,5.41-153.59,9.83-13.73,3.28-41.56,31.65-58.87,56.49-1.79,2.67-12.88,20.32.24,29.14,14.22,9.57,61.59,52.42,76,87.83,0,0,61.63-5.55,136.21-6.12V511.31c-82.69,0-137.42,4.45-164.5,4.45S591.88,517,585,511.21Z" transform="translate(-489.89 -424.88)"/><path class="cls-2" d="M572.8,503.7s-7.78-.07-10.31-6.72-3-15.45-13.14-15.45H517.54c-9.45,0-17.74,2.74-17.74,13.89s8.29,13.88,21.43,16,40.8,3.52,44.95,7S572.8,503.7,572.8,503.7Z" transform="translate(-489.89 -424.88)"/><path class="cls-5" d="M572.8,503.7s-7.78-.07-10.31-6.72-3-15.45-13.14-15.45H517.54c-9.45,0-17.74,2.74-17.74,13.89s8.29,13.88,21.43,16,40.8,3.52,44.95,7S572.8,503.7,572.8,503.7Z" transform="translate(-489.89 -424.88)"/><path class="cls-6" d="M616.42,638.81c-16.59,0-31-9.54-35-23.19l-.77-2.63c-1-3.43-2.12-7.19-3-9.52-1.6-.72-4.32-1.84-8.93-3.56-23.73-8.83-52.42-16.26-52.7-16.33-9.2-2.36-16.79-7.64-21.35-14.86A26.34,26.34,0,0,1,492,545.37c4.65-13,18.54-21.75,34.56-21.75A42.11,42.11,0,0,1,537,524.93c.27.07,32.47,8.33,60.79,18.87,13.55,5.05,27.63,10.92,37.65,22.09,8.6,9.59,11.54,19.58,15.26,32.22l.78,2.62a26.51,26.51,0,0,1-4.05,23.18c-4.95,7-12.82,12-22.17,14A42.07,42.07,0,0,1,616.42,638.81Z" transform="translate(-489.89 -424.88)"/><path class="cls-7" d="M616.42,609.5a1.55,1.55,0,0,1-1.52-1l-.77-2.63c-6.18-21-7-23.66-31.51-32.79-25.86-9.64-56.25-17.47-56.55-17.55a1.31,1.31,0,0,1-1.05-1.66,1.64,1.64,0,0,1,2-.89c.31.08,30.86,8,56.9,17.66S611,584.1,617.17,605.22l.78,2.63a1.33,1.33,0,0,1-1.14,1.61A1.72,1.72,0,0,1,616.42,609.5Z" transform="translate(-489.89 -424.88)"/><path class="cls-2" d="M1001.41,511.21c6.85-5.82-7.75-25-16.39-37.17s-16.67-25.3-26.31-27.86c-38.84-9.29-165.49-12.54-165.49-12.54v-8.76c41.15,0,135,5.41,153.59,9.83,13.73,3.28,41.56,31.65,58.87,56.49,1.79,2.67,12.88,20.32-.24,29.14-14.22,9.57-61.59,52.42-76,87.83,0,0-61.63-5.55-136.21-6.12V511.31c82.69,0,137.42,4.45,164.5,4.45S994.56,517,1001.41,511.21Z" transform="translate(-489.89 -424.88)"/><path class="cls-8" d="M1005.68,491.2c-17.31-24.84-45.14-53.21-58.87-56.49-18.54-4.42-112.44-9.83-153.59-9.83s-135.05,5.41-153.59,9.83c-13.73,3.28-41.56,31.65-58.87,56.49-1.79,2.67-12.88,20.32.24,29.14,14.22,9.57,61.59,52.42,76,87.83,0,0,61.63-5.55,136.21-6.12,74.58.57,136.21,6.12,136.21,6.12,14.42-35.41,61.79-78.26,76-87.83C1018.56,511.52,1007.47,493.87,1005.68,491.2Zm-4.27,20c-6.85,5.82-16.61,4.55-43.69,4.55s-81.81-4.45-164.5-4.45-137.42,4.45-164.5,4.45S591.88,517,585,511.21s7.75-25,16.39-37.17,16.67-25.3,26.3-27.86c38.84-9.29,165.5-12.54,165.5-12.54s126.65,3.25,165.49,12.54c9.64,2.56,17.67,15.73,26.31,27.86S1008.26,505.39,1001.41,511.21Z" transform="translate(-489.89 -424.88)"/><path class="cls-9" d="M1001.41,511.21c6.85-5.82-7.75-25-16.39-37.17s-16.67-25.3-26.31-27.86c-38.84-9.29-165.49-12.54-165.49-12.54v-8.76c41.15,0,135,5.41,153.59,9.83,13.73,3.28,41.56,31.65,58.87,56.49,1.79,2.67,12.88,20.32-.24,29.14-14.22,9.57-61.59,52.42-76,87.83,0,0-61.63-5.55-136.21-6.12V511.31c82.69,0,137.42,4.45,164.5,4.45S994.56,517,1001.41,511.21Z" transform="translate(-489.89 -424.88)"/><path class="cls-2" d="M1013.63,503.7s7.78-.07,10.32-6.72,3-15.45,13.14-15.45h31.8c9.45,0,17.75,2.74,17.75,13.89s-8.3,13.88-21.43,16-40.8,3.52-45,7S1013.63,503.7,1013.63,503.7Z" transform="translate(-489.89 -424.88)"/><path class="cls-10" d="M1013.63,503.7s7.78-.07,10.32-6.72,3-15.45,13.14-15.45h31.8c9.45,0,17.75,2.74,17.75,13.89s-8.3,13.88-21.43,16-40.8,3.52-45,7S1013.63,503.7,1013.63,503.7Z" transform="translate(-489.89 -424.88)"/><path class="cls-6" d="M970,638.81c16.6,0,31-9.54,35-23.19l.78-2.63c1-3.43,2.12-7.19,2.95-9.52,1.6-.72,4.31-1.84,8.93-3.56,23.73-8.83,52.41-16.26,52.7-16.33,9.19-2.36,16.79-7.64,21.35-14.86a26.34,26.34,0,0,0,2.72-23.35c-4.64-13-18.53-21.75-34.56-21.75a42.23,42.23,0,0,0-10.46,1.31c-.27.07-32.46,8.33-60.78,18.87C975.11,548.85,961,554.72,951,565.89c-8.6,9.59-11.54,19.58-15.27,32.22l-.77,2.62a26.51,26.51,0,0,0,4,23.18c5,7,12.82,12,22.17,14A42,42,0,0,0,970,638.81Z" transform="translate(-489.89 -424.88)"/><path class="cls-7" d="M970,609.5a1.55,1.55,0,0,0,1.53-1l.77-2.63c6.18-21,7-23.66,31.51-32.79,25.86-9.64,56.24-17.47,56.55-17.55a1.3,1.3,0,0,0,1-1.66,1.63,1.63,0,0,0-2-.89c-.31.08-30.86,8-56.91,17.66s-27.06,13.46-33.28,34.58l-.78,2.63a1.33,1.33,0,0,0,1.14,1.61A1.69,1.69,0,0,0,970,609.5Z" transform="translate(-489.89 -424.88)"/><path d="M985,474l-2.48-3.38c-1.61-2.22-3.94-5.48-7-9.55-1.57-2-3.34-4.25-5.46-6.53a33.49,33.49,0,0,0-7.88-6.46,16.33,16.33,0,0,0-5.52-1.83l-6.36-1.22c-4.4-.58-9-1.41-13.83-1.9-9.68-1.21-20.24-2.08-31.41-3s-23-1.55-35.21-2.24c-24.44-1.36-50.56-2.42-76.66-3.11-12.88.34-26.07.78-38.87,1.3s-25.49,1.11-37.71,1.81-24,1.42-35.21,2.24-21.74,1.75-31.41,3c-4.87.49-9.45,1.31-13.85,1.9l-6.33,1.21a16.53,16.53,0,0,0-5.53,1.83,33.74,33.74,0,0,0-7.88,6.46c-2.12,2.28-3.89,4.51-5.46,6.53-3.1,4.07-5.42,7.34-7,9.55L601.42,474l2.34-3.45c1.54-2.25,3.7-5.6,6.7-9.74,1.51-2.06,3.22-4.33,5.31-6.68a33.77,33.77,0,0,1,7.91-6.81,17.68,17.68,0,0,1,5.8-2.07l6.37-1.36c4.41-.68,9-1.55,13.89-2.11,9.7-1.34,20.27-2.35,31.45-3.37s23-1.88,35.24-2.58,24.88-1.38,37.74-2,25.84-1.08,39.09-1.47c26.16.8,52.28,2,76.75,3.44,12.23.7,24,1.62,35.23,2.58s21.76,2,31.46,3.37c4.86.57,9.5,1.43,13.91,2.12l6.33,1.35a18,18,0,0,1,5.82,2.07,34.18,34.18,0,0,1,7.91,6.81c2.08,2.35,3.79,4.62,5.31,6.69,3,4.14,5.16,7.48,6.7,9.73Z" transform="translate(-489.89 -424.88)"/></g></g></svg>