<svg id="Calque_1" data-name="Calque 1" xmlns="http://www.w3.org/2000/svg" xmlns:xlink="http://www.w3.org/1999/xlink" viewBox="0 0 606.58 317.34"><defs><style>.cls-1,.cls-8,.cls-9{fill:#070a13;}.cls-2{opacity:0.5;fill:url(#Dégradé_sans_nom);}.cls-10,.cls-2,.cls-4,.cls-5,.cls-8,.cls-9{isolation:isolate;}.cls-3{fill:#000200;}.cls-4,.cls-9{opacity:0.9;}.cls-4{fill:url(#Dégradé_sans_nom_2);}.cls-10,.cls-5,.cls-8{opacity:0.7;}.cls-5{fill:url(#Dégradé_sans_nom_3);}.cls-6{fill:none;stroke:#fff;stroke-miterlimit:10;stroke-opacity:0;}.cls-7{fill:#fff;}.cls-10{fill:url(#Dégradé_sans_nom_6);}</style><linearGradient id="Dégradé_sans_nom" x1="793.2" y1="-195.88" x2="793.2" y2="-113.6" gradientTransform="matrix(1, 0, 0, -1, -489.89, -104.88)" gradientUnits="userSpaceOnUse"><stop offset="0.37"/><stop offset="1" stop-color="#cfcfcf"/></linearGradient><linearGradient id="Dégradé_sans_nom_2" x1="683.92" y1="-288.17" x2="683.92" y2="-104.88" gradientTransform="matrix(1, 0, 0, -1, -489.89, -104.88)" gradientUnits="userSpaceOnUse"><stop offset="0.37"/><stop offset="1" stop-color="#fff"/></linearGradient><linearGradient id="Dégradé_sans_nom_3" x1="536.3" y1="-198.94" x2="536.3" y2="-161.53" gradientTransform="matrix(1, 0, 0, -1, -489.89, -104.88)" gradientUnits="userSpaceOnUse"><stop offset="0.69"/><stop offset="1" stop-color="#fff"/></linearGradient><linearGradient id="Dégradé_sans_nom_6" x1="-1737.39" y1="-198.94" x2="-1737.39" y2="-161.53" gradientTransform="translate(-1177.14 -104.88) rotate(180)" xlink:href="#Dégradé_sans_nom_3"/></defs><g id="Layer_1" data-name="Layer 1"><path class="cls-1" d="M137.27,301.45c0,8.78-8.39,15.89-18.73,15.89H22.81c-10.34,0-18.73-7.11-18.73-15.89V183.12c0-8.78,8.39-15.89,18.73-15.89h95.73c10.34,0,18.73,7.11,18.73,15.89Z" transform="translate(-0.03 0)"/><path class="cls-1" d="M469.39,301.45c0,8.78,8.38,15.89,18.73,15.89h95.73c10.34,0,18.73-7.11,18.73-15.89V183.12c0-8.78-8.39-15.89-18.73-15.89H488.11c-10.35,0-18.73,7.11-18.73,15.89Z" transform="translate(-0.03 0)"/><path class="cls-1" d="M602.58,151.12c0-21.79-17.84-35.11-40.67-43.58S529.11,90,529.11,90c-2.41-6.61-7.21-14.91-13.29-23.64,1.79,2.67,12.88,20.32-.24,29.14-14.22,9.57-61.59,52.42-76,87.83,0,0-61.63-5.55-136.21-6.12-74.58.57-136.21,6.12-136.21,6.12-14.42-35.41-61.79-78.26-76-87.83C78,86.64,89.16,69,90.92,66.32,84.83,75.05,80,83.32,77.62,90c0,0-10,9.08-32.82,17.56S4.11,129.31,4.11,151.12s3.57,46,3.57,46,12.84,52.06,12.84,60.54-6.68,17.5-3.63,23.41S34.28,303.2,34.28,303.2s59.74,8.4,269.08,8.4,269.08-8.4,269.08-8.4,14.35-16.23,17.39-22.13-3.63-14.94-3.63-23.41S599,197.12,599,197.12,602.58,172.9,602.58,151.12Z" transform="translate(-0.03 0)"/><path class="cls-1" d="M495.11,49.12C486.47,37,478.44,23.82,468.8,21.26,430,12,303.31,8.72,303.31,8.72S176.65,12,137.81,21.26c-9.63,2.56-17.66,15.73-26.3,27.86S88.28,80.51,95.11,86.33s16.6,4.55,43.69,4.55,81.81-4.45,164.5-4.45,137.42,4.45,164.5,4.45,36.84,1.27,43.69-4.55S503.77,61.3,495.11,49.12Z" transform="translate(-0.03 0)"/><path class="cls-2" d="M495.11,49.12C486.47,37,478.44,23.82,468.8,21.26,430,12,303.31,8.72,303.31,8.72S176.65,12,137.81,21.26c-9.63,2.56-17.66,15.73-26.3,27.86S88.28,80.51,95.11,86.33s16.6,4.55,43.69,4.55,81.81-4.45,164.5-4.45,137.42,4.45,164.5,4.45,36.84,1.27,43.69-4.55S503.77,61.3,495.11,49.12Z" transform="translate(-0.03 0)"/><path class="cls-3" d="M95.11,86.33c-6.86-5.82,7.75-25,16.39-37.17s16.67-25.3,26.3-27.86C176.64,12,303.3,8.76,303.3,8.76V0c-41.15,0-135,5.41-153.59,9.83C136,13.11,108.15,41.48,90.84,66.32,89.05,69,78,86.64,91.08,95.46c14.22,9.57,61.59,52.42,76,87.83,0,0,61.63-5.55,136.21-6.12V86.43c-82.69,0-137.42,4.45-164.5,4.45S102,92.12,95.11,86.33Z" transform="translate(-0.03 0)"/><path class="cls-4" d="M95.11,86.33c-6.86-5.82,7.75-25,16.39-37.17s16.67-25.3,26.3-27.86C176.64,12,303.3,8.76,303.3,8.76V0c-41.15,0-135,5.41-153.59,9.83C136,13.11,108.15,41.48,90.84,66.32,89.05,69,78,86.64,91.08,95.46c14.22,9.57,61.59,52.42,76,87.83,0,0,61.63-5.55,136.21-6.12V86.43c-82.69,0-137.42,4.45-164.5,4.45S102,92.12,95.11,86.33Z" transform="translate(-0.03 0)"/><path class="cls-3" d="M82.91,78.82s-7.78-.07-10.31-6.72-3-15.45-13.14-15.45H27.65c-9.45,0-17.74,2.74-17.74,13.89s8.29,13.88,21.43,16,40.8,3.52,45,7S82.91,78.82,82.91,78.82Z" transform="translate(-0.03 0)"/><path class="cls-5" d="M82.91,78.82s-7.78-.07-10.31-6.72-3-15.45-13.14-15.45H27.65c-9.45,0-17.74,2.74-17.74,13.89s8.29,13.88,21.43,16,40.8,3.52,45,7S82.91,78.82,82.91,78.82Z" transform="translate(-0.03 0)"/><path class="cls-6" d="M126.53,213.93c-16.59,0-31-9.54-35-23.19l-.77-2.63c-1-3.43-2.12-7.19-3-9.52-1.6-.72-4.32-1.84-8.93-3.56-23.73-8.83-52.42-16.26-52.7-16.33-9.2-2.36-16.79-7.64-21.35-14.86a26.34,26.34,0,0,1-2.67-23.35c4.65-13,18.54-21.75,34.56-21.75a42.25,42.25,0,0,1,10.44,1.31c.27.07,32.47,8.33,60.79,18.87,13.55,5,27.63,10.92,37.65,22.09,8.6,9.59,11.54,19.58,15.26,32.22l.78,2.62A26.52,26.52,0,0,1,157.54,199c-4.95,7-12.82,12-22.17,14A42.37,42.37,0,0,1,126.53,213.93Z" transform="translate(-0.03 0)"/><path class="cls-7" d="M126.53,184.62a1.55,1.55,0,0,1-1.52-1l-.77-2.63c-6.18-21-7-23.66-31.51-32.79-25.86-9.64-56.25-17.47-56.55-17.55a1.32,1.32,0,0,1-1.09-1.5.94.94,0,0,1,0-.16,1.64,1.64,0,0,1,2-.89c.31.08,30.86,8,56.9,17.66s27.08,13.46,33.25,34.58l.78,2.63a1.33,1.33,0,0,1-1,1.59l-.13,0A1.72,1.72,0,0,1,126.53,184.62Z" transform="translate(-0.03 0)"/><path class="cls-1" d="M511.52,86.33c6.85-5.82-7.75-25-16.39-37.17s-16.67-25.3-26.31-27.86C430,12,303.33,8.76,303.33,8.76V0c41.15,0,135,5.41,153.59,9.83,13.73,3.28,41.56,31.65,58.87,56.49,1.79,2.67,12.88,20.32-.24,29.14-14.22,9.57-61.59,52.42-76,87.83,0,0-61.63-5.55-136.21-6.12V86.43c82.69,0,137.42,4.45,164.5,4.45S504.67,92.12,511.52,86.33Z" transform="translate(-0.03 0)"/><path class="cls-8" d="M515.79,66.32c-17.31-24.84-45.14-53.21-58.87-56.49C438.38,5.41,344.48,0,303.33,0s-135,5.41-153.59,9.83C136,13.11,108.18,41.48,90.87,66.32,89.08,69,78,86.64,91.11,95.46c14.22,9.57,61.59,52.42,76,87.83,0,0,61.63-5.55,136.21-6.12,74.58.57,136.21,6.12,136.21,6.12,14.42-35.41,61.79-78.26,76-87.83C528.67,86.64,517.58,69,515.79,66.32Zm-4.27,20c-6.85,5.82-16.61,4.55-43.69,4.55S386,86.42,303.33,86.42s-137.42,4.45-164.5,4.45S102,92.12,95.11,86.33s7.75-25,16.39-37.17,16.67-25.3,26.3-27.86C176.64,12,303.3,8.76,303.3,8.76S430,12,468.79,21.3c9.64,2.56,17.67,15.73,26.31,27.86s23.27,31.35,16.42,37.17Z" transform="translate(-0.03 0)"/><path class="cls-9" d="M511.52,86.33c6.85-5.82-7.75-25-16.39-37.17s-16.67-25.3-26.31-27.86C430,12,303.33,8.76,303.33,8.76V0c41.15,0,135,5.41,153.59,9.83,13.73,3.28,41.56,31.65,58.87,56.49,1.79,2.67,12.88,20.32-.24,29.14-14.22,9.57-61.59,52.42-76,87.83,0,0-61.63-5.55-136.21-6.12V86.43c82.69,0,137.42,4.45,164.5,4.45S504.67,92.12,511.52,86.33Z" transform="translate(-0.03 0)"/><path class="cls-3" d="M523.74,78.82s7.78-.07,10.32-6.72,3-15.45,13.14-15.45H579c9.45,0,17.75,2.74,17.75,13.89s-8.3,13.88-21.43,16-40.8,3.52-45,7S523.74,78.82,523.74,78.82Z" transform="translate(-0.03 0)"/><path class="cls-10" d="M523.74,78.82s7.78-.07,10.32-6.72,3-15.45,13.14-15.45H579c9.45,0,17.75,2.74,17.75,13.89s-8.3,13.88-21.43,16-40.8,3.52-45,7S523.74,78.82,523.74,78.82Z" transform="translate(-0.03 0)"/><path class="cls-6" d="M480.11,213.93c16.6,0,31-9.54,35-23.19l.78-2.63c1-3.43,2.12-7.19,3-9.52,1.6-.72,4.31-1.84,8.93-3.56,23.73-8.83,52.41-16.26,52.7-16.33,9.19-2.36,16.79-7.64,21.35-14.86a26.34,26.34,0,0,0,2.72-23.35C599.9,107.49,586,98.74,570,98.74a42.41,42.41,0,0,0-10.46,1.31c-.27.07-32.46,8.33-60.78,18.87-13.52,5-27.63,10.92-37.63,22.09-8.6,9.59-11.54,19.58-15.27,32.22l-.77,2.62a26.48,26.48,0,0,0,4,23.18,36.19,36.19,0,0,0,22.17,14A42,42,0,0,0,480.11,213.93Z" transform="translate(-0.03 0)"/><path class="cls-7" d="M480.11,184.62a1.56,1.56,0,0,0,1.53-1l.77-2.63c6.18-21,7-23.66,31.51-32.79,25.86-9.64,56.24-17.47,56.55-17.55a1.29,1.29,0,0,0,1-1.52.7.7,0,0,0,0-.14,1.63,1.63,0,0,0-2-.89c-.31.08-30.86,8-56.91,17.66s-27.06,13.46-33.28,34.58L478.5,183a1.33,1.33,0,0,0,1,1.59l.13,0A1.47,1.47,0,0,0,480.11,184.62Z" transform="translate(-0.03 0)"/><path d="M495.11,49.12l-2.48-3.38c-1.61-2.22-3.94-5.48-7-9.55-1.57-2-3.34-4.25-5.46-6.53a33.56,33.56,0,0,0-7.88-6.46,16.19,16.19,0,0,0-5.52-1.83l-6.36-1.22c-4.4-.58-9-1.41-13.83-1.9-9.68-1.21-20.24-2.08-31.41-3S392.17,13.7,380,13c-24.44-1.36-50.56-2.42-76.66-3.11-12.88.34-26.07.78-38.87,1.3S238.94,12.31,226.72,13s-24,1.42-35.21,2.24-21.74,1.75-31.41,3c-4.87.49-9.45,1.31-13.85,1.9l-6.33,1.21a16.61,16.61,0,0,0-5.53,1.83,33.56,33.56,0,0,0-7.88,6.46c-2.12,2.28-3.89,4.51-5.46,6.53-3.1,4.07-5.42,7.34-7,9.55l-2.52,3.39,2.34-3.45c1.54-2.25,3.7-5.6,6.7-9.74,1.51-2.06,3.22-4.33,5.31-6.68a33.89,33.89,0,0,1,7.91-6.81,17.9,17.9,0,0,1,5.8-2.07L146,19c4.41-.68,9-1.55,13.89-2.11,9.7-1.34,20.27-2.35,31.45-3.37s23-1.88,35.24-2.58,24.88-1.38,37.74-2,25.84-1.08,39.09-1.47c26.16.8,52.28,2,76.75,3.44,12.23.7,24,1.62,35.23,2.58s21.76,2,31.46,3.37c4.86.57,9.5,1.43,13.91,2.12l6.33,1.35a18.09,18.09,0,0,1,5.82,2.07,34.12,34.12,0,0,1,7.91,6.81c2.08,2.35,3.79,4.62,5.31,6.69,3,4.14,5.16,7.48,6.7,9.73Z" transform="translate(-0.03 0)"/></g></svg>