<svg id="Calque_1" data-name="Calque 1" xmlns="http://www.w3.org/2000/svg" xmlns:xlink="http://www.w3.org/1999/xlink" viewBox="0 0 606.58 317.34"><defs><style>.cls-1{fill:#000200;}.cls-2{opacity:0.5;fill:url(#Dégradé_sans_nom);}.cls-2,.cls-3,.cls-4,.cls-7,.cls-8{isolation:isolate;}.cls-3,.cls-7{opacity:0.9;}.cls-3{fill:url(#Dégradé_sans_nom_2);}.cls-4,.cls-8{opacity:0.7;}.cls-4{fill:url(#Dégradé_sans_nom_3);}.cls-5{fill:none;stroke:#fff;stroke-opacity:0;}.cls-5,.cls-9{stroke-miterlimit:10;}.cls-6,.cls-9{fill:#e30613;}.cls-7{fill:url(#Dégradé_sans_nom_2-2);}.cls-8{fill:url(#Dégradé_sans_nom_3-2);}.cls-9{stroke:#8b1812;}</style><linearGradient id="Dégradé_sans_nom" x1="793.23" y1="-195.53" x2="793.23" y2="-113.25" gradientTransform="matrix(1, 0, 0, -1, -489.89, -104.88)" gradientUnits="userSpaceOnUse"><stop offset="0.37"/><stop offset="1" stop-color="#cfcfcf"/></linearGradient><linearGradient id="Dégradé_sans_nom_2" x1="683.95" y1="-287.82" x2="683.95" y2="-104.53" gradientTransform="matrix(1, 0, 0, -1, -489.89, -104.88)" gradientUnits="userSpaceOnUse"><stop offset="0.37"/><stop offset="1" stop-color="#fff"/></linearGradient><linearGradient id="Dégradé_sans_nom_3" x1="536.33" y1="-198.59" x2="536.33" y2="-161.18" gradientTransform="matrix(1, 0, 0, -1, -489.89, -104.88)" gradientUnits="userSpaceOnUse"><stop offset="0.69"/><stop offset="1" stop-color="#fff"/></linearGradient><linearGradient id="Dégradé_sans_nom_2-2" x1="-1589.77" y1="-287.82" x2="-1589.77" y2="-104.53" gradientTransform="translate(-1177.14 -104.88) rotate(180)" xlink:href="#Dégradé_sans_nom_2"/><linearGradient id="Dégradé_sans_nom_3-2" x1="-1737.42" y1="-198.59" x2="-1737.42" y2="-161.18" gradientTransform="translate(-1177.14 -104.88) rotate(180)" xlink:href="#Dégradé_sans_nom_3"/></defs><g id="Layer_1" data-name="Layer 1"><path d="M137.3,301.1c0,8.78-8.39,15.89-18.73,15.89H22.84C12.5,317,4.11,309.88,4.11,301.1V182.77c0-8.78,8.39-15.89,18.73-15.89h95.73c10.34,0,18.73,7.11,18.73,15.89Z" transform="translate(-0.06 0.35)"/><path d="M469.42,301.1c0,8.78,8.38,15.89,18.73,15.89h95.73c10.34,0,18.73-7.11,18.73-15.89V182.77c0-8.78-8.39-15.89-18.73-15.89H488.14c-10.35,0-18.73,7.11-18.73,15.89Z" transform="translate(-0.06 0.35)"/><path class="cls-1" d="M602.61,150.77c0-21.79-17.84-35.11-40.67-43.58s-32.8-17.58-32.8-17.58C526.73,83,521.93,74.7,515.85,66c1.79,2.67,12.88,20.32-.24,29.14-14.22,9.57-61.59,52.42-76,87.83,0,0-61.63-5.55-136.21-6.12-74.58.57-136.21,6.12-136.21,6.12-14.42-35.41-61.79-78.26-76-87.83C78.07,86.29,89.19,68.64,91,66c-6.09,8.73-10.88,17-13.3,23.64,0,0-10,9.08-32.82,17.56S4.14,129,4.14,150.77s3.57,46,3.57,46,12.84,52.06,12.84,60.54-6.68,17.5-3.63,23.41,17.39,22.13,17.39,22.13,59.74,8.4,269.08,8.4,269.08-8.4,269.08-8.4,14.35-16.23,17.39-22.13-3.63-14.94-3.63-23.41S599,196.77,599,196.77,602.61,172.55,602.61,150.77Z" transform="translate(-0.06 0.35)"/><path class="cls-1" d="M495.14,48.77c-8.64-12.13-16.67-25.3-26.31-27.86C430,11.62,303.34,8.37,303.34,8.37s-126.66,3.25-165.5,12.54c-9.63,2.56-17.66,15.73-26.3,27.86S88.31,80.16,95.14,86s16.6,4.55,43.69,4.55,81.81-4.45,164.5-4.45,137.42,4.45,164.5,4.45S504.67,91.8,511.52,86,503.8,61,495.14,48.77Z" transform="translate(-0.06 0.35)"/><path class="cls-2" d="M495.14,48.77c-8.64-12.13-16.67-25.3-26.31-27.86C430,11.62,303.34,8.37,303.34,8.37s-126.66,3.25-165.5,12.54c-9.63,2.56-17.66,15.73-26.3,27.86S88.31,80.16,95.14,86s16.6,4.55,43.69,4.55,81.81-4.45,164.5-4.45,137.42,4.45,164.5,4.45S504.67,91.8,511.52,86,503.8,61,495.14,48.77Z" transform="translate(-0.06 0.35)"/><path class="cls-1" d="M95.14,86c-6.86-5.82,7.75-25,16.39-37.17S128.2,23.51,137.83,21c38.84-9.29,165.5-12.54,165.5-12.54V-.35c-41.15,0-135,5.41-153.59,9.83C136,12.76,108.18,41.13,90.87,66c-1.79,2.67-12.88,20.32.24,29.14,14.22,9.57,61.59,52.42,76,87.83,0,0,61.63-5.55,136.21-6.12V86.08c-82.69,0-137.42,4.45-164.5,4.45S102,91.77,95.14,86Z" transform="translate(-0.06 0.35)"/><path class="cls-3" d="M95.14,86c-6.86-5.82,7.75-25,16.39-37.17S128.2,23.51,137.83,21c38.84-9.29,165.5-12.54,165.5-12.54V-.35c-41.15,0-135,5.41-153.59,9.83C136,12.76,108.18,41.13,90.87,66c-1.79,2.67-12.88,20.32.24,29.14,14.22,9.57,61.59,52.42,76,87.83,0,0,61.63-5.55,136.21-6.12V86.08c-82.69,0-137.42,4.45-164.5,4.45S102,91.77,95.14,86Z" transform="translate(-0.06 0.35)"/><path class="cls-1" d="M82.94,78.47s-7.78-.07-10.31-6.72-3-15.45-13.14-15.45H27.68C18.23,56.3,9.94,59,9.94,70.19s8.29,13.88,21.43,16,40.8,3.52,44.95,7S82.94,78.47,82.94,78.47Z" transform="translate(-0.06 0.35)"/><path class="cls-4" d="M82.94,78.47s-7.78-.07-10.31-6.72-3-15.45-13.14-15.45H27.68C18.23,56.3,9.94,59,9.94,70.19s8.29,13.88,21.43,16,40.8,3.52,44.95,7S82.94,78.47,82.94,78.47Z" transform="translate(-0.06 0.35)"/><path class="cls-5" d="M126.56,213.58c-16.59,0-31-9.54-35-23.19l-.77-2.63c-1-3.43-2.12-7.19-3-9.52-1.6-.72-4.32-1.84-8.93-3.56-23.73-8.83-52.42-16.26-52.7-16.33C17,156,9.37,150.71,4.81,143.49a26.37,26.37,0,0,1-2.67-23.35c4.65-13,18.54-21.75,34.56-21.75A42.19,42.19,0,0,1,47.14,99.7c.27.07,32.47,8.33,60.79,18.87,13.55,5.05,27.63,10.92,37.65,22.09,8.6,9.59,11.54,19.58,15.26,32.22l.78,2.62a26.46,26.46,0,0,1-4.05,23.18c-4.95,7-12.82,12-22.17,14A41.64,41.64,0,0,1,126.56,213.58Z" transform="translate(-0.06 0.35)"/><path class="cls-6" d="M126.63,181.89a1.54,1.54,0,0,1-1.5-1l-.8-2.6c-6.2-21-7-23.7-31.5-32.8-25.9-9.6-56.2-17.5-56.5-17.5a1.34,1.34,0,0,1-1.1-1.5v-.2a1.64,1.64,0,0,1,2-.9c.3.1,30.9,8,56.9,17.7s27.1,13.5,33.2,34.6l.8,2.6a1.35,1.35,0,0,1-1,1.6h-.5Z" transform="translate(-0.06 0.35)"/><path class="cls-1" d="M511.55,86c6.85-5.82-7.75-25-16.39-37.17S478.49,23.51,468.85,21C430,11.66,303.36,8.41,303.36,8.41V-.35c41.15,0,135,5.41,153.59,9.83,13.73,3.28,41.56,31.65,58.87,56.49,1.79,2.67,12.88,20.32-.24,29.14-14.22,9.57-61.59,52.42-76,87.83,0,0-61.63-5.55-136.21-6.12V86.08c82.69,0,137.42,4.45,164.5,4.45S504.7,91.77,511.55,86Z" transform="translate(-0.06 0.35)"/><path class="cls-7" d="M511.55,86c6.85-5.82-7.75-25-16.39-37.17S478.49,23.51,468.85,21C430,11.66,303.36,8.41,303.36,8.41V-.35c41.15,0,135,5.41,153.59,9.83,13.73,3.28,41.56,31.65,58.87,56.49,1.79,2.67,12.88,20.32-.24,29.14-14.22,9.57-61.59,52.42-76,87.83,0,0-61.63-5.55-136.21-6.12V86.08c82.69,0,137.42,4.45,164.5,4.45S504.7,91.77,511.55,86Z" transform="translate(-0.06 0.35)"/><path class="cls-1" d="M523.77,78.47s7.78-.07,10.32-6.72,3-15.45,13.14-15.45H579c9.45,0,17.75,2.74,17.75,13.89s-8.3,13.88-21.43,16-40.8,3.52-45,7S523.77,78.47,523.77,78.47Z" transform="translate(-0.06 0.35)"/><path class="cls-8" d="M523.77,78.47s7.78-.07,10.32-6.72,3-15.45,13.14-15.45H579c9.45,0,17.75,2.74,17.75,13.89s-8.3,13.88-21.43,16-40.8,3.52-45,7S523.77,78.47,523.77,78.47Z" transform="translate(-0.06 0.35)"/><path class="cls-5" d="M480.14,213.58c16.6,0,31-9.54,35-23.19l.78-2.63c1-3.43,2.12-7.19,3-9.52,1.6-.72,4.31-1.84,8.93-3.56,23.73-8.83,52.41-16.26,52.7-16.33,9.19-2.36,16.79-7.64,21.35-14.86a26.31,26.31,0,0,0,2.72-23.35c-4.64-13-18.53-21.75-34.56-21.75a42.47,42.47,0,0,0-10.46,1.31c-.27.07-32.46,8.33-60.78,18.87-13.52,5.05-27.63,10.92-37.63,22.09-8.6,9.59-11.54,19.58-15.27,32.22l-.77,2.62a26.54,26.54,0,0,0,4,23.18,36.19,36.19,0,0,0,22.17,14A41.34,41.34,0,0,0,480.14,213.58Z" transform="translate(-0.06 0.35)"/><path class="cls-9" d="M488.84,184.19a1.54,1.54,0,0,0,1.5-1l.8-2.6c6.2-21,7-23.7,31.5-32.8,25.9-9.6,56.2-17.5,56.6-17.5a1.2,1.2,0,0,0,1-1.5v-.1a1.55,1.55,0,0,0-2-.9c-.3.1-30.9,8-56.9,17.7s-27.1,13.5-33.3,34.6l-.8,2.6a1.35,1.35,0,0,0,1,1.6h.1A1.09,1.09,0,0,1,488.84,184.19Z" transform="translate(-0.06 0.35)"/><path d="M495.14,48.77l-2.48-3.38c-1.61-2.22-3.94-5.48-7-9.55-1.57-2-3.34-4.25-5.46-6.53a33.56,33.56,0,0,0-7.88-6.46A16.48,16.48,0,0,0,466.8,21l-6.36-1.22c-4.4-.58-9-1.41-13.83-1.9-9.68-1.21-20.24-2.08-31.41-3s-23-1.55-35.21-2.24c-24.44-1.36-50.56-2.42-76.66-3.11-12.88.34-26.07.78-38.87,1.3S239,12,226.75,12.66s-24,1.42-35.21,2.24-21.74,1.75-31.41,3c-4.87.49-9.45,1.31-13.85,1.9L140,21a16.69,16.69,0,0,0-5.53,1.83,34,34,0,0,0-7.88,6.46c-2.12,2.28-3.89,4.51-5.46,6.53-3.1,4.07-5.42,7.34-7,9.55l-2.52,3.39,2.34-3.45c1.54-2.25,3.7-5.6,6.7-9.74,1.51-2.06,3.22-4.33,5.31-6.68a34.12,34.12,0,0,1,7.91-6.81,17.9,17.9,0,0,1,5.8-2.07L146,18.66c4.41-.68,9-1.55,13.89-2.11,9.7-1.34,20.27-2.35,31.45-3.37s23-1.88,35.24-2.58,24.88-1.38,37.74-2,25.84-1.08,39.09-1.47c26.16.8,52.28,2,76.75,3.44,12.23.7,24,1.62,35.23,2.58s21.76,2,31.46,3.37c4.86.57,9.5,1.43,13.91,2.12L467.08,20a17.92,17.92,0,0,1,5.82,2.07,34.12,34.12,0,0,1,7.91,6.81c2.08,2.35,3.79,4.62,5.31,6.69,3,4.14,5.16,7.48,6.7,9.73Z" transform="translate(-0.06 0.35)"/></g></svg>