<svg id="Calque_1" data-name="Calque 1" xmlns="http://www.w3.org/2000/svg" xmlns:xlink="http://www.w3.org/1999/xlink" viewBox="0 0 606.58 317.34"><defs><style>.cls-1{fill:#000200;}.cls-2{opacity:0.5;fill:url(#Dégradé_sans_nom);}.cls-2,.cls-3,.cls-4,.cls-7,.cls-8,.cls-9{isolation:isolate;}.cls-3,.cls-8{opacity:0.9;}.cls-3{fill:url(#Dégradé_sans_nom_2);}.cls-4,.cls-7,.cls-9{opacity:0.7;}.cls-4{fill:url(#Dégradé_sans_nom_3);}.cls-5{fill:none;stroke:#fff;stroke-opacity:0;}.cls-10,.cls-5{stroke-miterlimit:10;}.cls-10,.cls-6{fill:#e30613;}.cls-7{fill:url(#Dégradé_sans_nom_4);}.cls-8{fill:url(#Dégradé_sans_nom_2-2);}.cls-9{fill:url(#Dégradé_sans_nom_3-2);}.cls-10{stroke:#8b1812;}</style><linearGradient id="Dégradé_sans_nom" x1="793.23" y1="-195.86" x2="793.23" y2="-113.58" gradientTransform="matrix(1, 0, 0, -1, -489.89, -104.88)" gradientUnits="userSpaceOnUse"><stop offset="0.37"/><stop offset="1" stop-color="#cfcfcf"/></linearGradient><linearGradient id="Dégradé_sans_nom_2" x1="683.95" y1="-288.15" x2="683.95" y2="-104.86" gradientTransform="matrix(1, 0, 0, -1, -489.89, -104.88)" gradientUnits="userSpaceOnUse"><stop offset="0.37"/><stop offset="1" stop-color="#fff"/></linearGradient><linearGradient id="Dégradé_sans_nom_3" x1="536.33" y1="-198.92" x2="536.33" y2="-161.51" gradientTransform="matrix(1, 0, 0, -1, -489.89, -104.88)" gradientUnits="userSpaceOnUse"><stop offset="0.69"/><stop offset="1" stop-color="#fff"/></linearGradient><linearGradient id="Dégradé_sans_nom_4" x1="793.25" y1="-288.15" x2="793.25" y2="-104.86" gradientTransform="matrix(1, 0, 0, -1, -489.89, -104.88)" gradientUnits="userSpaceOnUse"><stop offset="0"/><stop offset="0.07" stop-color="#040404"/><stop offset="0.13" stop-color="#0f0f0f"/><stop offset="0.2" stop-color="#232323"/><stop offset="0.26" stop-color="#3e3e3e"/><stop offset="0.32" stop-color="#616161"/><stop offset="0.38" stop-color="#8c8c8c"/><stop offset="0.45" stop-color="#bebebe"/><stop offset="0.46" stop-color="#cfcfcf"/><stop offset="0.63"/></linearGradient><linearGradient id="Dégradé_sans_nom_2-2" x1="-1589.77" y1="-288.15" x2="-1589.77" y2="-104.86" gradientTransform="translate(-1177.14 -104.88) rotate(180)" xlink:href="#Dégradé_sans_nom_2"/><linearGradient id="Dégradé_sans_nom_3-2" x1="-1737.42" y1="-198.92" x2="-1737.42" y2="-161.51" gradientTransform="translate(-1177.14 -104.88) rotate(180)" xlink:href="#Dégradé_sans_nom_3"/></defs><g id="Layer_1" data-name="Layer 1"><path d="M137.3,301.43c0,8.78-8.39,15.89-18.73,15.89H22.84c-10.34,0-18.73-7.11-18.73-15.89V183.1c0-8.78,8.39-15.89,18.73-15.89h95.73c10.34,0,18.73,7.11,18.73,15.89Z" transform="translate(-0.06 0.02)"/><path d="M469.42,301.43c0,8.78,8.38,15.89,18.73,15.89h95.73c10.34,0,18.73-7.11,18.73-15.89V183.1c0-8.78-8.39-15.89-18.73-15.89H488.14c-10.35,0-18.73,7.11-18.73,15.89Z" transform="translate(-0.06 0.02)"/><path class="cls-1" d="M602.61,151.1c0-21.79-17.84-35.11-40.67-43.58s-32.8-17.58-32.8-17.58c-2.41-6.61-7.21-14.91-13.29-23.64,1.79,2.67,12.88,20.32-.24,29.14-14.22,9.57-61.59,52.42-76,87.83,0,0-61.63-5.55-136.21-6.12-74.58.57-136.21,6.12-136.21,6.12-14.42-35.41-61.79-78.26-76-87.83C78.07,86.62,89.19,69,91,66.3c-6.09,8.73-10.88,17-13.3,23.64,0,0-10,9.08-32.82,17.56S4.14,129.29,4.14,151.1s3.57,46,3.57,46,12.84,52.06,12.84,60.54-6.68,17.5-3.63,23.41,17.39,22.13,17.39,22.13,59.74,8.4,269.08,8.4,269.08-8.4,269.08-8.4,14.35-16.23,17.39-22.13-3.63-14.94-3.63-23.41S599,197.1,599,197.1,602.61,172.88,602.61,151.1Z" transform="translate(-0.06 0.02)"/><path class="cls-1" d="M495.14,49.1C486.5,37,478.47,23.8,468.83,21.24,430,12,303.34,8.7,303.34,8.7S176.68,12,137.84,21.24C128.21,23.8,120.18,37,111.54,49.1S88.31,80.49,95.14,86.31s16.6,4.55,43.69,4.55,81.81-4.45,164.5-4.45,137.42,4.45,164.5,4.45,36.84,1.27,43.69-4.55S503.8,61.28,495.14,49.1Z" transform="translate(-0.06 0.02)"/><path class="cls-2" d="M495.14,49.1C486.5,37,478.47,23.8,468.83,21.24,430,12,303.34,8.7,303.34,8.7S176.68,12,137.84,21.24C128.21,23.8,120.18,37,111.54,49.1S88.31,80.49,95.14,86.31s16.6,4.55,43.69,4.55,81.81-4.45,164.5-4.45,137.42,4.45,164.5,4.45,36.84,1.27,43.69-4.55S503.8,61.28,495.14,49.1Z" transform="translate(-0.06 0.02)"/><path class="cls-3" d="M95.14,86.31c-6.86-5.82,7.75-25,16.39-37.17s16.67-25.3,26.3-27.86C176.67,12,303.33,8.74,303.33,8.74V0c-41.15,0-135,5.41-153.59,9.83C136,13.09,108.18,41.46,90.87,66.3,89.08,69,78,86.62,91.11,95.44c14.22,9.57,61.59,52.42,76,87.83,0,0,61.63-5.55,136.21-6.12V86.41c-82.69,0-137.42,4.45-164.5,4.45S102,92.1,95.14,86.31Z" transform="translate(-0.06 0.02)"/><path class="cls-1" d="M82.94,78.8s-7.78-.07-10.31-6.72-3-15.45-13.14-15.45H27.68c-9.45,0-17.74,2.74-17.74,13.89s8.29,13.88,21.43,16,40.8,3.52,44.95,7S82.94,78.8,82.94,78.8Z" transform="translate(-0.06 0.02)"/><path class="cls-4" d="M82.94,78.8s-7.78-.07-10.31-6.72-3-15.45-13.14-15.45H27.68c-9.45,0-17.74,2.74-17.74,13.89s8.29,13.88,21.43,16,40.8,3.52,44.95,7S82.94,78.8,82.94,78.8Z" transform="translate(-0.06 0.02)"/><path class="cls-5" d="M126.56,213.91c-16.59,0-31-9.54-35-23.19l-.77-2.63c-1-3.43-2.12-7.19-3-9.52-1.6-.72-4.32-1.84-8.93-3.56-23.73-8.83-52.42-16.26-52.7-16.33C17,156.32,9.37,151,4.81,143.82a26.37,26.37,0,0,1-2.67-23.35c4.65-13,18.54-21.75,34.56-21.75A42.19,42.19,0,0,1,47.14,100c.27.07,32.47,8.33,60.79,18.87,13.55,5,27.63,10.92,37.65,22.09,8.6,9.59,11.54,19.58,15.26,32.22l.78,2.62A26.46,26.46,0,0,1,157.57,199c-4.95,7-12.82,12-22.17,14A42.3,42.3,0,0,1,126.56,213.91Z" transform="translate(-0.06 0.02)"/><path class="cls-6" d="M126.63,182.22a1.54,1.54,0,0,1-1.5-1l-.8-2.6c-6.2-21-7-23.7-31.5-32.8-25.9-9.6-56.2-17.5-56.5-17.5a1.34,1.34,0,0,1-1.1-1.5v-.2a1.64,1.64,0,0,1,2-.9c.3.1,30.9,8,56.9,17.7s27.1,13.5,33.2,34.6l.8,2.6a1.35,1.35,0,0,1-1,1.6h-.5Z" transform="translate(-0.06 0.02)"/><path class="cls-7" d="M515.82,66.3C498.51,41.46,470.68,13.09,457,9.81,438.41,5.39,344.51,0,303.36,0s-135,5.41-153.59,9.83C136,13.09,108.21,41.46,90.9,66.3,89.11,69,78,86.62,91.14,95.44c14.22,9.57,61.59,52.42,76,87.83,0,0,61.63-5.55,136.21-6.12,74.58.57,136.21,6.12,136.21,6.12,14.42-35.41,61.79-78.26,76-87.83C528.7,86.62,517.61,69,515.82,66.3Zm-4.27,20c-6.85,5.82-16.61,4.55-43.69,4.55s-81.81-4.45-164.5-4.45-137.42,4.45-164.5,4.45S102,92.1,95.14,86.31s7.75-25,16.39-37.17,16.67-25.3,26.3-27.86C176.67,12,303.33,8.74,303.33,8.74S430,12,468.82,21.28c9.64,2.56,17.67,15.73,26.31,27.86s23.27,31.35,16.42,37.17Z" transform="translate(-0.06 0.02)"/><path class="cls-8" d="M511.55,86.31c6.85-5.82-7.75-25-16.39-37.17s-16.67-25.3-26.31-27.86C430,12,303.36,8.74,303.36,8.74V0c41.15,0,135,5.41,153.59,9.83,13.73,3.28,41.56,31.65,58.87,56.49,1.79,2.67,12.88,20.32-.24,29.14-14.22,9.57-61.59,52.42-76,87.83,0,0-61.63-5.55-136.21-6.12V86.41c82.69,0,137.42,4.45,164.5,4.45S504.7,92.1,511.55,86.31Z" transform="translate(-0.06 0.02)"/><path class="cls-1" d="M523.77,78.8s7.78-.07,10.32-6.72,3-15.45,13.14-15.45H579c9.45,0,17.75,2.74,17.75,13.89s-8.3,13.88-21.43,16-40.8,3.52-45,7S523.77,78.8,523.77,78.8Z" transform="translate(-0.06 0.02)"/><path class="cls-9" d="M523.77,78.8s7.78-.07,10.32-6.72,3-15.45,13.14-15.45H579c9.45,0,17.75,2.74,17.75,13.89s-8.3,13.88-21.43,16-40.8,3.52-45,7S523.77,78.8,523.77,78.8Z" transform="translate(-0.06 0.02)"/><path class="cls-5" d="M480.14,213.91c16.6,0,31-9.54,35-23.19l.78-2.63c1-3.43,2.12-7.19,3-9.52,1.6-.72,4.31-1.84,8.93-3.56,23.73-8.83,52.41-16.26,52.7-16.33,9.19-2.36,16.79-7.64,21.35-14.86a26.31,26.31,0,0,0,2.72-23.35c-4.64-13-18.53-21.75-34.56-21.75A42.47,42.47,0,0,0,559.55,100c-.27.07-32.46,8.33-60.78,18.87-13.52,5-27.63,10.92-37.63,22.09-8.6,9.59-11.54,19.58-15.27,32.22l-.77,2.62a26.54,26.54,0,0,0,4,23.18,36.19,36.19,0,0,0,22.17,14A42,42,0,0,0,480.14,213.91Z" transform="translate(-0.06 0.02)"/><path class="cls-10" d="M488.84,184.51a1.54,1.54,0,0,0,1.5-1l.8-2.6c6.2-21,7-23.7,31.5-32.8,25.9-9.6,56.2-17.5,56.6-17.5a1.2,1.2,0,0,0,1-1.5V129a1.55,1.55,0,0,0-2-.9c-.3.1-30.9,8-56.9,17.7s-27.1,13.5-33.3,34.6l-.8,2.6a1.35,1.35,0,0,0,1,1.6h.1A1.09,1.09,0,0,1,488.84,184.51Z" transform="translate(-0.06 0.02)"/><path d="M495.14,49.1l-2.48-3.38c-1.61-2.22-3.94-5.48-7-9.55-1.57-2-3.34-4.25-5.46-6.53a33.56,33.56,0,0,0-7.88-6.46,16,16,0,0,0-5.52-1.83l-6.36-1.22c-4.4-.58-9-1.41-13.83-1.9-9.68-1.21-20.24-2.08-31.41-3S392.2,13.68,380,13c-24.44-1.36-50.56-2.42-76.66-3.11-12.88.34-26.07.78-38.87,1.3S239,12.29,226.75,13s-24,1.42-35.21,2.24-21.74,1.75-31.41,3c-4.87.49-9.45,1.31-13.85,1.9L140,21.34a16.69,16.69,0,0,0-5.53,1.83,34,34,0,0,0-7.88,6.46c-2.12,2.28-3.89,4.51-5.46,6.53-3.1,4.07-5.42,7.34-7,9.55l-2.52,3.39,2.34-3.45c1.54-2.25,3.7-5.6,6.7-9.74,1.51-2.06,3.22-4.33,5.31-6.68a33.89,33.89,0,0,1,7.91-6.81,17.9,17.9,0,0,1,5.8-2.07L146,19c4.41-.68,9-1.55,13.89-2.11,9.7-1.34,20.27-2.35,31.45-3.37s23-1.88,35.24-2.58,24.88-1.38,37.74-2,25.84-1.08,39.09-1.47c26.16.8,52.28,2,76.75,3.44,12.23.7,24,1.62,35.23,2.58s21.76,2,31.46,3.37c4.86.57,9.5,1.43,13.91,2.12l6.33,1.35a17.92,17.92,0,0,1,5.82,2.07,34.12,34.12,0,0,1,7.91,6.81c2.08,2.35,3.79,4.62,5.31,6.69,3,4.14,5.16,7.48,6.7,9.73Z" transform="translate(-0.06 0.02)"/></g></svg>